solid OpenSCAD_Model
  facet normal -0 -0 -1
    outer loop
      vertex 75 37 0
      vertex 75 -20 0
      vertex -40 37 0
    endloop
  endfacet
  facet normal 0 0 -1
    outer loop
      vertex -40 37 0
      vertex -95 -80 0
      vertex -101 -50 0
    endloop
  endfacet
  facet normal -0 0 -1
    outer loop
      vertex 75 -20 0
      vertex -95 -80 0
      vertex -40 37 0
    endloop
  endfacet
  facet normal 0 0 -1
    outer loop
      vertex -40 37 0
      vertex -101 -50 0
      vertex -115 -50 0
    endloop
  endfacet
  facet normal -0 0 1
    outer loop
      vertex -40 37 3
      vertex 75 -20 3
      vertex 75 37 3
    endloop
  endfacet
  facet normal -0 0 1
    outer loop
      vertex -101 -50 3
      vertex -95 -80 3
      vertex -40 37 3
    endloop
  endfacet
  facet normal 0 0 1
    outer loop
      vertex -40 37 3
      vertex -95 -80 3
      vertex 75 -20 3
    endloop
  endfacet
  facet normal 0 0 1
    outer loop
      vertex -115 -50 3
      vertex -101 -50 3
      vertex -40 37 3
    endloop
  endfacet
  facet normal 1 0 0
    outer loop
      vertex 75 37 0
      vertex 75 -20 3
      vertex 75 -20 0
    endloop
  endfacet
  facet normal 1 0 -0
    outer loop
      vertex 75 37 0
      vertex 75 37 3
      vertex 75 -20 3
    endloop
  endfacet
  facet normal 0 1 0
    outer loop
      vertex -40 37 0
      vertex 75 37 3
      vertex 75 37 0
    endloop
  endfacet
  facet normal 0 1 0
    outer loop
      vertex -40 37 0
      vertex -40 37 3
      vertex 75 37 3
    endloop
  endfacet
  facet normal -0.75741 0.65294 0
    outer loop
      vertex -115 -50 0
      vertex -40 37 3
      vertex -40 37 0
    endloop
  endfacet
  facet normal -0.75741 0.65294 0
    outer loop
      vertex -115 -50 0
      vertex -115 -50 3
      vertex -40 37 3
    endloop
  endfacet
  facet normal 0 -1 0
    outer loop
      vertex -101 -50 0
      vertex -115 -50 3
      vertex -115 -50 0
    endloop
  endfacet
  facet normal 0 -1 0
    outer loop
      vertex -101 -50 0
      vertex -101 -50 3
      vertex -115 -50 3
    endloop
  endfacet
  facet normal -0.980581 -0.196116 0
    outer loop
      vertex -95 -80 0
      vertex -101 -50 3
      vertex -101 -50 0
    endloop
  endfacet
  facet normal -0.980581 -0.196116 0
    outer loop
      vertex -95 -80 0
      vertex -95 -80 3
      vertex -101 -50 3
    endloop
  endfacet
  facet normal 0.33282 -0.94299 0
    outer loop
      vertex 75 -20 0
      vertex -95 -80 3
      vertex -95 -80 0
    endloop
  endfacet
  facet normal 0.33282 -0.94299 0
    outer loop
      vertex 75 -20 0
      vertex 75 -20 3
      vertex -95 -80 3
    endloop
  endfacet
endsolid OpenSCAD_Model
